<svg width="153" height="87" viewBox="0 0 153 87" fill="none" xmlns="http://www.w3.org/2000/svg">
<path d="M8.01562 31.625V44H0.820312V10.3906H8.57812C11.6562 10.3906 13.9375 10.7813 15.4219 11.5625C16.9219 12.3437 17.6719 13.9375 17.6719 16.3438V25.6719C17.6719 27.875 17.0625 29.4375 15.8438 30.3594C14.625 31.2656 12.0156 31.6875 8.01562 31.625ZM10.4766 25.0391V16.9766C10.4766 15.7891 9.65625 15.1953 8.01562 15.1953V26.8203C9.65625 26.8203 10.4766 26.2266 10.4766 25.0391ZM38.2453 44H23.8078V10.3906H38.1516V14.7266H31.1906V23.7969H37.4719V27.875H31.1906V39.6875H38.2453V44ZM62.4984 44.0469H55.1156C54.3187 43.0938 53.9203 40.3906 53.9203 35.9375V35.8906L53.9672 33.875C54.0141 31.0781 54.0375 29.6484 54.0375 29.5859C54.0375 28.4453 53.2719 27.875 51.7406 27.875V44H44.3578V10.3906H53.475C55.5531 10.3906 57.3578 10.8672 58.8891 11.8203C60.4359 12.7734 61.2094 14.2812 61.2094 16.3438V20.375C61.2094 22.9844 59.6859 24.75 56.6391 25.6719C59.7016 26.3906 61.2328 28.2422 61.2328 31.2266L61.1156 34.9062C61.1156 40.2812 61.5766 43.3281 62.4984 44.0469ZM54.0375 22.0156V16.4844C54.0375 15.3125 53.2719 14.7266 51.7406 14.7266V23.7969C53.2719 23.7969 54.0375 23.2031 54.0375 22.0156ZM68.2828 10.3906H75.6656V38.6094C75.6656 39.2812 76.0797 39.6172 76.9078 39.6172C77.7203 39.6172 78.1266 39.2812 78.1266 38.6094V10.3906H85.5094V38.2109C85.5094 40.1484 84.7047 41.6484 83.0953 42.7109C81.4859 43.7734 79.4234 44.3047 76.9078 44.3047C74.5797 44.3047 72.5563 43.8281 70.8375 42.875C69.1344 41.9219 68.2828 40.3828 68.2828 38.2578V10.3906ZM91.9031 30.5469H98.6297V38.2578C98.6297 39.0234 99.0906 39.4062 100.012 39.4062C100.903 39.4062 101.348 39.0234 101.348 38.2578V34.2734C101.348 33.0547 100.536 31.625 98.9109 29.9844C95.7703 26.9375 93.8172 24.8906 93.0516 23.8438C92.2859 22.7969 91.9031 21.6484 91.9031 20.3984V16.625C91.9031 12.2656 94.7469 10.0859 100.434 10.0859C105.528 10.0859 108.075 12.0703 108.075 16.0391V21.8516H101.348V15.6641C101.348 14.9922 100.981 14.6562 100.247 14.6562C99.3875 14.6562 98.9578 15.3047 98.9578 16.6016L99.0984 18.7812C99.0984 20.0312 99.9266 21.4844 101.583 23.1406C104.661 26.0938 106.614 28.1562 107.442 29.3281C108.286 30.5 108.708 31.8281 108.708 33.3125V37.6016C108.708 42.0703 105.856 44.3047 100.153 44.3047C94.6531 44.3047 91.9031 42.2734 91.9031 38.2109V30.5469ZM129.539 44H115.102V10.3906H129.445V14.7266H122.484V23.7969H128.766V27.875H122.484V39.6875H129.539V44Z" fill="black"/>
<rect x="153" y="59" width="2" height="103" transform="rotate(90 153 59)" fill="black"/>
<rect x="153" y="61" width="2" height="23" transform="rotate(-180 153 61)" fill="black"/>
</svg>
