<?xml version="1.0" encoding="utf-8"?>
<!-- Generator: Adobe Illustrator 26.0.3, SVG Export Plug-In . SVG Version: 6.00 Build 0)  -->
<svg version="1.1" id="Layer_1" xmlns="http://www.w3.org/2000/svg" xmlns:xlink="http://www.w3.org/1999/xlink" x="0px" y="0px"
	 viewBox="0 0 14 14" style="enable-background:new 0 0 14 14;" xml:space="preserve">
<style type="text/css">
	.st0{clip-path:url(#SVGID_00000150803952985647160070000015729908176405080221_);}
</style>
<g>
	<defs>
		<rect id="SVGID_1_" y="0" width="14" height="14"/>
	</defs>
	<clipPath id="SVGID_00000039103890142379077050000002346027338095223689_">
		<use xlink:href="#SVGID_1_"  style="overflow:visible;"/>
	</clipPath>
	<g style="clip-path:url(#SVGID_00000039103890142379077050000002346027338095223689_);">
		<path d="M0.4,9.1h4.5v4.5c0,0.1,0,0.2,0.1,0.3C5.1,14,5.2,14,5.3,14h3.3c0.1,0,0.1,0,0.2,0s0.1-0.1,0.1-0.1c0,0,0.1-0.1,0.1-0.1
			c0,0,0-0.1,0-0.2V9.1h4.5c0.1,0,0.2,0,0.3-0.1C14,8.9,14,8.8,14,8.7V5.3c0-0.1,0-0.1,0-0.2c0,0-0.1-0.1-0.1-0.1
			c0,0-0.1-0.1-0.1-0.1c0,0-0.1,0-0.2,0H9.1V0.4c0-0.1,0-0.2-0.1-0.3S8.8,0,8.7,0H5.3C5.2,0,5.1,0,5.1,0.1C5,0.2,4.9,0.3,4.9,0.4
			v4.5H0.4c-0.1,0-0.2,0-0.3,0.1C0,5.1,0,5.2,0,5.3v3.3c0,0.1,0,0.2,0.1,0.3C0.2,9,0.3,9.1,0.4,9.1L0.4,9.1z"/>
	</g>
</g>
</svg>
